<svg width="20" height="21" viewBox="0 0 20 21" fill="none" xmlns="http://www.w3.org/2000/svg">
<path fill-rule="evenodd" clip-rule="evenodd" d="M10 0.666687C4.47727 0.666687 0 5.14396 0 10.6667C0 16.1894 4.47727 20.6667 10 20.6667C15.5227 20.6667 20 16.1894 20 10.6667C20 5.14396 15.5227 0.666687 10 0.666687ZM14.3345 8.97578C14.4144 8.88454 14.4751 8.77827 14.5133 8.6632C14.5514 8.54814 14.5661 8.42661 14.5566 8.30576C14.5471 8.18492 14.5135 8.0672 14.4578 7.95953C14.4021 7.85186 14.3254 7.75642 14.2323 7.67882C14.1392 7.60121 14.0315 7.54302 13.9155 7.50765C13.7996 7.47229 13.6777 7.46047 13.5572 7.47289C13.4366 7.48532 13.3197 7.52173 13.2134 7.57999C13.1071 7.63825 13.0135 7.71718 12.9382 7.81214L9.02909 12.5021L7.00636 10.4785C6.83491 10.3129 6.60527 10.2213 6.36691 10.2233C6.12855 10.2254 5.90054 10.321 5.73198 10.4896C5.56343 10.6581 5.46782 10.8861 5.46575 11.1245C5.46368 11.3629 5.55531 11.5925 5.72091 11.764L8.44818 14.4912C8.53751 14.5805 8.64445 14.6502 8.7622 14.6958C8.87994 14.7415 9.00591 14.7621 9.13206 14.7564C9.25822 14.7506 9.3818 14.7187 9.49492 14.6625C9.60804 14.6064 9.70823 14.5273 9.78909 14.4303L14.3345 8.97578Z" fill="#4ECB71"/>
</svg>
