<svg width="24" height="24" viewBox="0 0 24 24" fill="none" xmlns="http://www.w3.org/2000/svg">
<path d="M21.5 19V11.0212C21.5 9.75027 20.896 8.55494 19.8728 7.80101L13.1864 2.87419C12.4809 2.35434 11.5191 2.35434 10.8136 2.87419L4.1272 7.80101C3.10401 8.55494 2.5 9.75027 2.5 11.0212V19C2.5 20.6569 3.84315 22 5.5 22H8.25C8.80228 22 9.25 21.5523 9.25 21V18C9.25 16.8954 10.1454 16 11.25 16H12.75C13.8546 16 14.75 16.8954 14.75 18V21C14.75 21.5523 15.1977 22 15.75 22H18.5C20.1569 22 21.5 20.6569 21.5 19Z" fill="#4E82EA"/>
</svg>
