<svg width="20" height="20" viewBox="0 0 20 20" fill="none" xmlns="http://www.w3.org/2000/svg">
<path fill-rule="evenodd" clip-rule="evenodd" d="M7.41667 0.833332C7.41667 0.419118 7.08088 0.0833321 6.66667 0.0833321C6.25245 0.0833321 5.91667 0.419118 5.91667 0.833332V1.83565C5.32935 1.90269 4.81709 2.02644 4.34355 2.26772C3.44978 2.72312 2.72312 3.44977 2.26772 4.34354C1.98688 4.89472 1.86527 5.49834 1.80699 6.21173C1.74999 6.90935 1.74999 7.77485 1.75 8.867V8.9L1.75 11.1V11.133C1.74999 12.2251 1.74999 13.0906 1.80699 13.7883C1.86527 14.5017 1.98688 15.1053 2.26772 15.6565C2.72312 16.5502 3.44978 17.2769 4.34355 17.7323C4.89472 18.0131 5.49834 18.1347 6.21173 18.193C6.90934 18.25 7.77481 18.25 8.86691 18.25H8.86698H8.9H11.1H11.133H11.1331C12.2252 18.25 13.0907 18.25 13.7883 18.193C14.5017 18.1347 15.1053 18.0131 15.6565 17.7323C16.5502 17.2769 17.2769 16.5502 17.7323 15.6565C18.0131 15.1053 18.1347 14.5017 18.193 13.7883C18.25 13.0907 18.25 12.2252 18.25 11.1331V11.133V11.1V8.9V8.86698V8.86691C18.25 7.77481 18.25 6.90934 18.193 6.21173C18.1347 5.49834 18.0131 4.89472 17.7323 4.34354C17.2769 3.44977 16.5502 2.72312 15.6565 2.26772C15.1829 2.02644 14.6707 1.90269 14.0833 1.83565V0.833332C14.0833 0.419118 13.7475 0.0833321 13.3333 0.0833321C12.9191 0.0833321 12.5833 0.419118 12.5833 0.833332V1.75672C12.1498 1.74999 11.6687 1.75 11.133 1.75L11.1 1.75H10.75V0.833332C10.75 0.419118 10.4142 0.0833321 10 0.0833321C9.58579 0.0833321 9.25 0.419118 9.25 0.833332V1.75H8.9L8.867 1.75C8.33135 1.75 7.85021 1.74999 7.41667 1.75672V0.833332ZM12.5833 3.2569C12.1593 3.25015 11.6715 3.25 11.1 3.25H10.75V4.16667C10.75 4.58088 10.4142 4.91667 10 4.91667C9.58579 4.91667 9.25 4.58088 9.25 4.16667L9.25 3.25H8.9C8.32855 3.25 7.84067 3.25015 7.41667 3.2569L7.41667 4.16667C7.41667 4.58088 7.08088 4.91667 6.66667 4.91667C6.25245 4.91667 5.91667 4.58088 5.91667 4.16667L5.91667 3.34788C5.52914 3.40365 5.25415 3.48723 5.02453 3.60423C4.413 3.91582 3.91582 4.413 3.60423 5.02453C3.44909 5.329 3.35271 5.71325 3.30201 6.33388C3.25058 6.96326 3.25 7.76752 3.25 8.9L3.25 11.1C3.25 12.2325 3.25058 13.0367 3.30201 13.6661C3.35271 14.2867 3.44909 14.671 3.60423 14.9755C3.91582 15.587 4.413 16.0842 5.02453 16.3958C5.329 16.5509 5.71325 16.6473 6.33388 16.698C6.96326 16.7494 7.76752 16.75 8.9 16.75H11.1C12.2325 16.75 13.0367 16.7494 13.6661 16.698C14.2867 16.6473 14.671 16.5509 14.9755 16.3958C15.587 16.0842 16.0842 15.587 16.3958 14.9755C16.5509 14.671 16.6473 14.2867 16.698 13.6661C16.7494 13.0367 16.75 12.2325 16.75 11.1V8.9C16.75 7.76752 16.7494 6.96326 16.698 6.33388C16.6473 5.71325 16.5509 5.329 16.3958 5.02453C16.0842 4.413 15.587 3.91582 14.9755 3.60423C14.7459 3.48723 14.4709 3.40365 14.0833 3.34788V4.16667C14.0833 4.58088 13.7475 4.91667 13.3333 4.91667C12.9191 4.91667 12.5833 4.58088 12.5833 4.16667V3.2569ZM5.08333 7.5C5.08333 7.08578 5.41912 6.75 5.83333 6.75L14.1667 6.75C14.5809 6.75 14.9167 7.08578 14.9167 7.5C14.9167 7.91421 14.5809 8.25 14.1667 8.25L5.83333 8.25C5.41912 8.25 5.08333 7.91421 5.08333 7.5ZM5.83333 10.0833C5.41912 10.0833 5.08333 10.4191 5.08333 10.8333C5.08333 11.2475 5.41912 11.5833 5.83333 11.5833L10.8333 11.5833C11.2475 11.5833 11.5833 11.2475 11.5833 10.8333C11.5833 10.4191 11.2475 10.0833 10.8333 10.0833L5.83333 10.0833ZM5.08333 14.1667C5.08333 13.7525 5.41912 13.4167 5.83333 13.4167H7.5C7.91421 13.4167 8.25 13.7525 8.25 14.1667C8.25 14.5809 7.91421 14.9167 7.5 14.9167H5.83333C5.41912 14.9167 5.08333 14.5809 5.08333 14.1667Z" fill="#2A2B3D" fill-opacity="0.8"/>
</svg>
