<svg width="40" height="40" viewBox="0 0 40 40" fill="none" xmlns="http://www.w3.org/2000/svg">
<path d="M6.66671 5C4.81671 5 3.33337 6.48333 3.33337 8.33333V15C3.33337 16.85 4.81671 18.3333 6.66671 18.3333H13.3334C15.1834 18.3333 16.6667 16.85 16.6667 15V8.33333C16.6667 6.48333 15.1834 5 13.3334 5H6.66671ZM13.6667 7.5L15.4334 9.25L8.78337 15.8333L4.56671 11.5833L6.35004 9.83333L8.80004 12.3167L13.6667 7.5ZM6.66671 21.6667C4.81671 21.6667 3.33337 23.15 3.33337 25V31.6667C3.33337 33.5167 4.81671 35 6.66671 35H13.3334C15.1834 35 16.6667 33.5167 16.6667 31.6667V25C16.6667 23.15 15.1834 21.6667 13.3334 21.6667H6.66671ZM6.66671 25H13.3334V31.6667H6.66671V25ZM20 8.33333H36.6667V11.6667H20V8.33333ZM20 31.6667V28.3333H36.6667V31.6667H20ZM20 18.3333H36.6667V21.6667H20V18.3333Z" fill="#D8D8D8"/>
</svg>
