<svg width="20" height="20" viewBox="0 0 20 20" fill="none" xmlns="http://www.w3.org/2000/svg">
<path fill-rule="evenodd" clip-rule="evenodd" d="M5.75 7.09877C5.75 5.47087 6.30656 4.31448 7.0835 3.56418C7.86949 2.80514 8.92751 2.41665 10 2.41666C11.0725 2.41666 12.1305 2.80515 12.9165 3.56419C13.6934 4.31449 14.25 5.47088 14.25 7.09877C14.25 9.40666 12.8215 11.4111 11.474 12.7745C10.6442 13.6141 9.35609 13.6141 8.5262 12.7745C7.17862 11.4112 5.75 9.40668 5.75 7.09877ZM15.75 7.09877C15.75 5.10526 15.0566 3.5456 13.9585 2.48519C12.8695 1.43353 11.4275 0.91666 10 0.916656C8.57249 0.916653 7.13051 1.43351 6.0415 2.48518C4.94344 3.54558 4.25 5.10525 4.25 7.09877C4.25 10.009 6.02592 12.3787 7.45938 13.829C8.87645 15.2626 11.1238 15.2626 12.5409 13.8289C13.9742 12.3787 15.75 10.009 15.75 7.09877ZM10 5.74999C9.49374 5.74999 9.08333 6.1604 9.08333 6.66666C9.08333 7.17292 9.49374 7.58332 10 7.58332C10.5063 7.58332 10.9167 7.17292 10.9167 6.66666C10.9167 6.1604 10.5063 5.74999 10 5.74999ZM7.58333 6.66666C7.58333 5.33197 8.66531 4.24999 10 4.24999C11.3347 4.24999 12.4167 5.33197 12.4167 6.66666C12.4167 8.00134 11.3347 9.08332 10 9.08332C8.66531 9.08332 7.58333 8.00134 7.58333 6.66666ZM4.85454 12.9064C5.01961 13.2863 4.84546 13.7281 4.46556 13.8932C3.99213 14.0989 3.66431 14.3121 3.46611 14.5054C3.26996 14.6967 3.25 14.8163 3.25 14.8629C3.25 14.9158 3.27862 15.0714 3.56883 15.3127C3.85457 15.5502 4.31301 15.7977 4.94547 16.0201C6.20357 16.4624 7.99057 16.75 10 16.75C12.0094 16.75 13.7964 16.4624 15.0545 16.0201C15.687 15.7977 16.1454 15.5502 16.4312 15.3127C16.7214 15.0714 16.75 14.9158 16.75 14.8629C16.75 14.8163 16.73 14.6967 16.5339 14.5054C16.3357 14.3121 16.0079 14.0989 15.5344 13.8932C15.1545 13.7281 14.9804 13.2863 15.1455 12.9064C15.3105 12.5265 15.7523 12.3524 16.1322 12.5174C16.7011 12.7646 17.2066 13.0662 17.5812 13.4315C17.9578 13.7988 18.25 14.2816 18.25 14.8629C18.25 15.5383 17.8589 16.0764 17.3901 16.4661C16.9168 16.8596 16.2768 17.1803 15.5521 17.4352C14.0957 17.9472 12.1327 18.25 10 18.25C7.86729 18.25 5.9043 17.9472 4.44792 17.4352C3.72316 17.1803 3.08324 16.8596 2.60994 16.4661C2.14111 16.0764 1.75 15.5383 1.75 14.8629C1.75 14.2816 2.04221 13.7988 2.41881 13.4315C2.79335 13.0662 3.29887 12.7646 3.86778 12.5174C4.24768 12.3524 4.68947 12.5265 4.85454 12.9064Z" fill="#2A2B3D" fill-opacity="0.8"/>
</svg>
