<svg width="24" height="24" viewBox="0 0 24 24" fill="none" xmlns="http://www.w3.org/2000/svg">
<path fill-rule="evenodd" clip-rule="evenodd" d="M16 11C16 13.7614 13.7614 16 11 16C8.23858 16 6 13.7614 6 11C6 8.23858 8.23858 6 11 6C13.7614 6 16 8.23858 16 11ZM14.6048 17.0017C13.5519 17.6355 12.3185 18 11 18C7.13401 18 4 14.866 4 11C4 7.13401 7.13401 4 11 4C14.866 4 18 7.13401 18 11C18 12.8276 17.2996 14.4917 16.1525 15.7383L19.6569 19.2426C20.0474 19.6332 20.0474 20.2663 19.6569 20.6569C19.2663 21.0474 18.6332 21.0474 18.2426 20.6569L14.7071 17.1213C14.6694 17.0836 14.6352 17.0435 14.6048 17.0017Z" fill="#D8D8D8"/>
</svg>
