<svg width="20" height="20" viewBox="0 0 20 20" fill="none" xmlns="http://www.w3.org/2000/svg">
<g clip-path="url(#clip0_104_171)">
<path fill-rule="evenodd" clip-rule="evenodd" d="M7.58335 1.83334C7.58335 1.41912 7.91914 1.08334 8.33335 1.08334L11.6667 1.08334C12.0809 1.08334 12.4167 1.41912 12.4167 1.83334C12.4167 2.24755 12.0809 2.58334 11.6667 2.58334L8.33335 2.58334C7.91914 2.58334 7.58335 2.24755 7.58335 1.83334ZM3.25002 11.8333C3.25002 8.10542 6.2721 5.08334 10 5.08334C13.7279 5.08334 16.75 8.10541 16.75 11.8333C16.75 15.5613 13.7279 18.5833 10 18.5833H5.83335C5.41914 18.5833 5.08335 18.9191 5.08335 19.3333C5.08335 19.7476 5.41914 20.0833 5.83335 20.0833H10C14.5564 20.0833 18.25 16.3897 18.25 11.8333C18.25 7.27699 14.5564 3.58334 10 3.58334C5.44367 3.58334 1.75002 7.27699 1.75002 11.8333C1.75002 12.2476 2.08581 12.5833 2.50002 12.5833C2.91423 12.5833 3.25002 12.2476 3.25002 11.8333ZM0.916687 14.3333C0.916687 13.9191 1.25247 13.5833 1.66669 13.5833L5.83335 13.5833C6.24757 13.5833 6.58335 13.9191 6.58335 14.3333C6.58335 14.7475 6.24757 15.0833 5.83335 15.0833L1.66669 15.0833C1.25247 15.0833 0.916687 14.7476 0.916687 14.3333ZM2.58335 16.8333C2.58335 16.4191 2.91914 16.0833 3.33335 16.0833L8.33335 16.0833C8.74757 16.0833 9.08335 16.4191 9.08335 16.8333C9.08335 17.2475 8.74757 17.5833 8.33335 17.5833L3.33335 17.5833C2.91914 17.5833 2.58335 17.2475 2.58335 16.8333ZM10.75 9.33334C10.75 8.91912 10.4142 8.58334 10 8.58334C9.5858 8.58334 9.25002 8.91912 9.25002 9.33334L9.25002 12.6667C9.25002 13.0809 9.58581 13.4167 10 13.4167C10.4142 13.4167 10.75 13.0809 10.75 12.6667L10.75 9.33334Z" fill="#2A2B3D" fill-opacity="0.8"/>
</g>
<defs>
<clipPath id="clip0_104_171">
<rect width="20" height="20" fill="white"/>
</clipPath>
</defs>
</svg>
