<svg width="20" height="20" viewBox="0 0 20 20" fill="none" xmlns="http://www.w3.org/2000/svg">
<path fill-rule="evenodd" clip-rule="evenodd" d="M9.99998 0.833336C4.93748 0.833336 0.833313 4.9375 0.833313 10C0.833313 15.0625 4.93748 19.1667 9.99998 19.1667C15.0625 19.1667 19.1666 15.0625 19.1666 10C19.1666 4.9375 15.0625 0.833336 9.99998 0.833336ZM13.0891 8.08917C13.2409 7.932 13.3249 7.7215 13.323 7.503C13.3211 7.2845 13.2335 7.07549 13.079 6.92099C12.9245 6.76648 12.7155 6.67884 12.497 6.67694C12.2785 6.67504 12.068 6.75904 11.9108 6.91084L9.99998 8.82167L8.08915 6.91084C8.01227 6.83124 7.92032 6.76776 7.81865 6.72408C7.71698 6.68041 7.60763 6.65742 7.49698 6.65646C7.38633 6.6555 7.2766 6.67658 7.17418 6.71848C7.07177 6.76039 6.97873 6.82226 6.90048 6.90051C6.82224 6.97875 6.76036 7.07179 6.71846 7.17421C6.67656 7.27662 6.65548 7.38635 6.65644 7.497C6.6574 7.60765 6.68039 7.717 6.72406 7.81867C6.76774 7.92034 6.83122 8.0123 6.91081 8.08917L8.82165 10L6.91081 11.9108C6.83122 11.9877 6.76774 12.0797 6.72406 12.1813C6.68039 12.283 6.6574 12.3924 6.65644 12.503C6.65548 12.6137 6.67656 12.7234 6.71846 12.8258C6.76036 12.9282 6.82224 13.0213 6.90048 13.0995C6.97873 13.1777 7.07177 13.2396 7.17418 13.2815C7.2766 13.3234 7.38633 13.3445 7.49698 13.3435C7.60763 13.3426 7.71698 13.3196 7.81865 13.2759C7.92032 13.2322 8.01227 13.1688 8.08915 13.0892L9.99998 11.1783L11.9108 13.0892C12.068 13.241 12.2785 13.325 12.497 13.3231C12.7155 13.3212 12.9245 13.2335 13.079 13.079C13.2335 12.9245 13.3211 12.7155 13.323 12.497C13.3249 12.2785 13.2409 12.068 13.0891 11.9108L11.1783 10L13.0891 8.08917Z" fill="#FFD233"/>
</svg>
